# xmcd CD database file generated by OrangeCD 5.2
#
# Track frame offsets:
#	150
#	36122
#	67512
#	94207
#	119490
#
# Disc length: 1976 seconds
#
# Revision: 1
# Processed by: cddbd v1.5.1PL2 Copyright (c) Steve Scherf et al.
# Submitted via: OrangeCD 5.2
#
DISCID=3807b605
DTITLE=Roy Hargrove Quintet - With The Tenors Of Our Time (Sampler)
DYEAR=1994
DGENRE=Jazz
TTITLE0=Soppin' The Biscuit - feat. Stanley Turrentine
TTITLE1=Valse Hot - feat. Branford Marsalis
TTITLE2=When We Were One - feat. Johnny Griffin
TTITLE3=Serenity - feat. Joe Henderson
TTITLE4=Mental Phrasing - feat. Joshua Redman
EXTD=YEAR: 1994
EXTT0=
EXTT1=
EXTT2=
EXTT3=
EXTT4=
PLAYORDER=
